<svg width="36" height="36" viewBox="0 0 36 36" fill="none" xmlns="http://www.w3.org/2000/svg">
<rect width="36" height="36" rx="4" fill="#FEF3E5"/>
<path d="M18 14.4995C20.0822 14.4995 21.3378 14.8757 23.1055 15.7788V15.7778C23.9296 16.2155 24.4129 16.6855 24.7471 17.1802C25.0049 17.5619 25.1831 17.97 25.3555 18.4321L25.5283 18.9136L25.5312 18.9194L28.1816 26.1294C28.2083 26.2892 28.1532 26.5198 27.8906 26.8452C27.6207 27.1796 27.1909 27.5376 26.6484 27.9009C25.838 28.4436 24.8374 28.9575 23.8984 29.3901L22.9902 29.7935L22.9873 29.7944C21.422 30.4744 19.7697 30.8335 18 30.8335C16.3657 30.8335 14.8002 30.5176 13.333 29.9185L13.041 29.7954L13.0371 29.7935L12.1279 29.3901C11.1889 28.9575 10.1871 28.4437 9.37402 27.9009C8.83002 27.5377 8.39813 27.1787 8.12402 26.8433C7.85847 26.5182 7.79666 26.2855 7.81934 26.1245L10.4697 18.9194L10.4688 18.9185C10.7191 18.2487 10.9272 17.6915 11.2725 17.1802C11.5668 16.7443 11.9715 16.3291 12.6133 15.939L12.9033 15.7739C14.6941 14.8732 15.9498 14.4995 18 14.4995ZM20.667 20.1665C19.8485 20.1665 19.0867 20.4868 18.5244 21.0103L18.415 21.1177L18.4141 21.1187L17.9971 21.5503L17.583 21.1294C17.0111 20.5294 16.2035 20.1665 15.333 20.1665C13.5792 20.1667 12.167 21.6285 12.167 23.3999C12.167 24.1704 12.4319 24.8806 12.876 25.4448L13.0771 25.6772L13.082 25.6821L17.6426 30.3491L18 30.7153L18.3574 30.3491L22.918 25.6821C23.4888 25.0954 23.833 24.2767 23.833 23.3999C23.833 21.6301 22.4358 20.1666 20.667 20.1665ZM18 5.1665C19.9372 5.1665 21.5 6.72931 21.5 8.6665C21.5 10.6037 19.9372 12.1665 18 12.1665C16.0628 12.1665 14.5 10.6037 14.5 8.6665C14.5 6.72934 16.0628 5.16655 18 5.1665Z" stroke="#FFB700"/>
</svg>
