<svg width="29" height="28" viewBox="0 0 29 28" fill="none" xmlns="http://www.w3.org/2000/svg">
<path fill-rule="evenodd" clip-rule="evenodd" d="M5.02415 4.04787C10.4733 -1.39424 19.3325 -1.33681 24.8146 4.14695C30.2996 9.63214 30.3571 18.496 24.9065 23.9453C19.456 29.3946 10.5939 29.3386 5.10887 23.8534C3.56585 22.317 2.40002 20.4438 1.70293 18.3809C1.00585 16.318 0.796502 14.1215 1.09132 11.9641C1.12998 11.6809 1.27952 11.4247 1.50706 11.2518C1.7346 11.079 2.02149 11.0036 2.30463 11.0422C2.58776 11.0809 2.84395 11.2304 3.01682 11.458C3.1897 11.6855 3.2651 11.9724 3.22645 12.2556C2.97616 14.0839 3.15334 15.9454 3.74406 17.6937C4.33478 19.4421 5.32295 21.0295 6.63088 22.3314C11.2903 26.9895 18.7898 27.0168 23.3845 22.4233C27.9779 17.8283 27.9506 10.3286 23.2926 5.66902C18.6361 1.01379 11.1409 0.983632 6.54617 5.57138L7.62019 5.57568C7.76161 5.57634 7.90152 5.60485 8.03192 5.65958C8.16232 5.71432 8.28067 5.7942 8.3802 5.89467C8.47973 5.99514 8.5585 6.11423 8.61201 6.24514C8.66552 6.37605 8.69272 6.51622 8.69206 6.65765C8.6914 6.79907 8.66289 6.93898 8.60817 7.06939C8.55344 7.1998 8.47356 7.31815 8.37309 7.41768C8.27263 7.51722 8.15354 7.59599 8.02263 7.6495C7.89173 7.70301 7.75156 7.73022 7.61014 7.72956L3.95443 7.71232C3.67056 7.71081 3.39877 7.59727 3.19818 7.3964C2.99758 7.19553 2.88441 6.92358 2.88328 6.6397L2.86461 2.98673C2.86386 2.84531 2.89097 2.70512 2.94439 2.57417C2.99781 2.44322 3.0765 2.32408 3.17597 2.22354C3.27543 2.12301 3.39373 2.04305 3.52409 1.98823C3.65446 1.93341 3.79435 1.90481 3.93577 1.90405C4.07719 1.9033 4.21737 1.93041 4.34832 1.98383C4.47926 2.03726 4.5984 2.11595 4.69893 2.21542C4.79946 2.31489 4.87942 2.43318 4.93424 2.56356C4.98905 2.69393 5.01765 2.83382 5.01841 2.97524L5.02415 4.04787ZM14.9603 7.17816C15.2459 7.17816 15.5198 7.29163 15.7218 7.49359C15.9238 7.69556 16.0372 7.96948 16.0372 8.2551V13.5536L19.3124 16.8275C19.4153 16.9268 19.4974 17.0456 19.5539 17.177C19.6104 17.3083 19.6402 17.4496 19.6415 17.5926C19.6428 17.7356 19.6156 17.8774 19.5615 18.0098C19.5075 18.1422 19.4276 18.2625 19.3265 18.3636C19.2254 18.4648 19.1052 18.5448 18.9729 18.599C18.8406 18.6532 18.6988 18.6806 18.5558 18.6794C18.4128 18.6782 18.2715 18.6486 18.1401 18.5922C18.0087 18.5358 17.8898 18.4538 17.7904 18.351L13.8849 14.4453V8.25654C13.8849 7.97091 13.9983 7.69699 14.2003 7.49503C14.4022 7.29306 14.6761 7.1796 14.9618 7.1796" fill="black"/>
</svg>
