<svg width="27" height="28" viewBox="0 0 27 28" fill="none" xmlns="http://www.w3.org/2000/svg">
<path d="M11.1318 1.80371C12.2676 0.826712 13.9132 0.73736 15.1436 1.55273L15.3838 1.72754L15.3867 1.72949L24.708 9.11914V9.12012C25.2746 9.59074 25.5996 10.2846 25.5996 11.0137V23.209C25.5996 24.1509 25.2459 25.0577 24.6094 25.7539L24.4785 25.8906C23.8043 26.5583 22.9036 26.9518 21.9541 26.9961L21.7637 27H19.0156C18.8224 26.9999 18.6389 26.9229 18.5049 26.7891C18.4046 26.6887 18.3378 26.5627 18.3115 26.4277L18.2988 26.29V22.002C18.2988 21.3087 18.0563 20.6411 17.6191 20.1113L17.4199 19.8926C16.8581 19.3348 16.0971 19.0234 15.3057 19.0234H11.2822C9.63606 19.0234 8.28906 20.35 8.28906 22.002V25.5596L8.25586 25.5713L8.25098 26.2881C8.248 26.6752 7.92916 26.9999 7.52148 27H4.83887C2.71196 27 1 25.29 1 23.1963V11.0371C1.01743 10.2961 1.37008 9.59949 1.96387 9.14258L1.97168 9.1377L1.97852 9.13086L11.1045 1.82617L11.1182 1.81543L11.1318 1.80371Z" stroke="black" stroke-width="2"/>
</svg>
