<svg width="27" height="28" viewBox="0 0 27 28" fill="none" xmlns="http://www.w3.org/2000/svg">
<path d="M9.28869 26.2827V22.0019C9.28869 20.9091 10.181 20.0232 11.2818 20.0232H15.3056C15.8343 20.0232 16.3412 20.2317 16.715 20.6027C17.0888 20.9738 17.2988 21.4771 17.2988 22.0019V26.2827C17.2954 26.737 17.4749 27.1738 17.7973 27.4962C18.1197 27.8187 18.5585 28 19.0161 28H21.7613C23.0435 28.0033 24.2742 27.5 25.182 26.6011C26.0898 25.7023 26.6 24.4818 26.6 23.2089V11.0136C26.6 9.98544 26.1409 9.01017 25.3465 8.35053L16.0076 0.946216C14.3831 -0.352013 12.0556 -0.310097 10.4795 1.04577L1.35382 8.35053C0.521837 8.99073 0.0245732 9.96889 0 11.0136V23.1965C0 25.8494 2.16633 28 4.83864 28H7.5212C8.47171 28 9.24419 27.2387 9.25108 26.2951L9.28869 26.2827Z" fill="#2EB5FA"/>
</svg>
