<svg width="26" height="28" viewBox="0 0 26 28" fill="none" xmlns="http://www.w3.org/2000/svg">
<path fill-rule="evenodd" clip-rule="evenodd" d="M18.505 0C19.046 0 19.485 0.437579 19.485 0.97674L19.4856 2.08086C21.3935 2.21123 22.978 2.86256 24.0995 3.98262C25.3239 5.20811 25.968 6.97014 25.9616 9.08381V20.9649C25.9616 25.3042 23.1966 28 18.7474 28H7.69561C3.24641 28 0.481506 25.2664 0.481506 20.8659V9.0812C0.481506 4.98826 2.94726 2.36103 6.9687 2.08131L6.9695 0.97674C6.9695 0.437579 7.40854 0 7.9495 0C8.49046 0 8.9295 0.437579 8.9295 0.97674L8.92911 2.05636H17.5244L17.525 0.97674C17.525 0.437579 17.9641 0 18.505 0ZM24.0015 11.5959H2.44151V20.8659C2.44151 24.2076 4.30743 26.0465 7.69561 26.0465H18.7474C22.1356 26.0465 24.0016 24.2415 24.0016 20.9649L24.0015 11.5959ZM19.0377 19.7904C19.5787 19.7904 20.0177 20.228 20.0177 20.7672C20.0177 21.3063 19.5787 21.7439 19.0377 21.7439C18.4968 21.7439 18.0525 21.3063 18.0525 20.7672C18.0525 20.228 18.485 19.7904 19.026 19.7904H19.0377ZM13.2394 19.7904C13.7804 19.7904 14.2194 20.228 14.2194 20.7672C14.2194 21.3063 13.7804 21.7439 13.2394 21.7439C12.6984 21.7439 12.2542 21.3063 12.2542 20.7672C12.2542 20.228 12.6867 19.7904 13.2276 19.7904H13.2394ZM7.42892 19.7904C7.96988 19.7904 8.40892 20.228 8.40892 20.7672C8.40892 21.3063 7.96988 21.7439 7.42892 21.7439C6.88796 21.7439 6.44239 21.3063 6.44239 20.7672C6.44239 20.228 6.8762 19.7904 7.41716 19.7904H7.42892ZM19.0377 14.7287C19.5787 14.7287 20.0177 15.1663 20.0177 15.7055C20.0177 16.2446 19.5787 16.6822 19.0377 16.6822C18.4968 16.6822 18.0525 16.2446 18.0525 15.7055C18.0525 15.1663 18.485 14.7287 19.026 14.7287H19.0377ZM13.2394 14.7287C13.7804 14.7287 14.2194 15.1663 14.2194 15.7055C14.2194 16.2446 13.7804 16.6822 13.2394 16.6822C12.6984 16.6822 12.2542 16.2446 12.2542 15.7055C12.2542 15.1663 12.6867 14.7287 13.2276 14.7287H13.2394ZM7.42892 14.7287C7.96988 14.7287 8.40892 15.1663 8.40892 15.7055C8.40892 16.2446 7.96988 16.6822 7.42892 16.6822C6.88796 16.6822 6.44239 16.2446 6.44239 15.7055C6.44239 15.1663 6.8762 14.7287 7.41716 14.7287H7.42892ZM17.5244 4.00984H8.92911L8.9295 5.26267C8.9295 5.80183 8.49046 6.23941 7.9495 6.23941C7.40854 6.23941 6.9695 5.80183 6.9695 5.26267L6.9688 4.03941C4.04157 4.28449 2.44151 6.05299 2.44151 9.0812V9.64237H24.0015L24.0016 9.0812C24.0067 7.47284 23.5729 6.22261 22.7118 5.36308C21.9559 4.60749 20.8509 4.15622 19.4861 4.04003L19.485 5.26267C19.485 5.80183 19.046 6.23941 18.505 6.23941C17.9641 6.23941 17.525 5.80183 17.525 5.26267L17.5244 4.00984Z" fill="#1E1E1E"/>
</svg>
