<svg width="36" height="36" viewBox="0 0 36 36" fill="none" xmlns="http://www.w3.org/2000/svg">
<rect width="36" height="36" rx="4" fill="#D7F1FF"/>
<path d="M27.6578 16.9902H21.2246V26.6399H27.6578" stroke="#5BC8FF" stroke-width="1.4" stroke-miterlimit="10" stroke-linecap="round" stroke-linejoin="round"/>
<path d="M24.4412 20.2068H27.6577" stroke="#5BC8FF" stroke-width="1.4" stroke-miterlimit="10" stroke-linecap="round" stroke-linejoin="round"/>
<path d="M24.4412 23.4233H27.6577" stroke="#5BC8FF" stroke-width="1.4" stroke-miterlimit="10" stroke-linecap="round" stroke-linejoin="round"/>
<path d="M12.3789 26.6399V31.4648" stroke="#5BC8FF" stroke-width="1.4" stroke-miterlimit="10" stroke-linecap="round" stroke-linejoin="round"/>
<path d="M9.16244 31.4648H15.5956C16.9279 31.4648 18.0081 30.3847 18.0081 29.0523C18.0081 27.72 16.9279 26.6399 15.5956 26.6399H9.16244C7.83011 26.6399 6.75 27.72 6.75 29.0523C6.75005 30.3847 7.83011 31.4648 9.16244 31.4648Z" stroke="#5BC8FF" stroke-width="1.4" stroke-miterlimit="10" stroke-linecap="round" stroke-linejoin="round"/>
<path d="M29.266 5.625H13.1831V10.5035H29.266V5.625Z" stroke="#5BC8FF" stroke-width="1.4" stroke-miterlimit="10" stroke-linecap="round" stroke-linejoin="round"/>
<path d="M14.7915 10.5034V26.5413" stroke="#5BC8FF" stroke-width="1.4" stroke-miterlimit="10" stroke-linecap="round" stroke-linejoin="round"/>
<path d="M16.0388 31.4241C16.1548 31.4507 16.2756 31.4648 16.3997 31.4648H26.0494C26.9377 31.4648 27.6577 30.7448 27.6577 29.8565V10.5034" stroke="#5BC8FF" stroke-width="1.4" stroke-miterlimit="10" stroke-linecap="round" stroke-linejoin="round"/>
<path d="M22.833 5.625V10.5035" stroke="#5BC8FF" stroke-width="1.4" stroke-miterlimit="10" stroke-linecap="round" stroke-linejoin="round"/>
<path d="M26.0496 5.625V10.5035" stroke="#5BC8FF" stroke-width="1.4" stroke-miterlimit="10" stroke-linecap="round" stroke-linejoin="round"/>
<path d="M19.6165 5.625V10.5035" stroke="#5BC8FF" stroke-width="1.4" stroke-miterlimit="10" stroke-linecap="round" stroke-linejoin="round"/>
<path d="M16.3997 5.625V10.5035" stroke="#5BC8FF" stroke-width="1.4" stroke-miterlimit="10" stroke-linecap="round" stroke-linejoin="round"/>
</svg>
