<svg width="26" height="28" viewBox="0 0 26 28" fill="none" xmlns="http://www.w3.org/2000/svg">
<path d="M9.15295 5.44269C9.15295 5.13336 9.27583 4.8367 9.49456 4.61797C9.71329 4.39925 10.0099 4.27637 10.3193 4.27637H20.4274C20.7367 4.27637 21.0334 4.39925 21.2521 4.61797C21.4708 4.8367 21.5937 5.13336 21.5937 5.44269C21.5937 5.75202 21.4708 6.04867 21.2521 6.2674C21.0334 6.48613 20.7367 6.60901 20.4274 6.60901H10.3193C10.0099 6.60901 9.71329 6.48613 9.49456 6.2674C9.27583 6.04867 9.15295 5.75202 9.15295 5.44269ZM16.3655 8.94165H19.824C19.9173 8.94165 20.0262 8.94165 20.1241 8.94943C20.278 8.9615 20.4283 9.00211 20.5673 9.06917C20.787 9.18102 20.9656 9.35959 21.0774 9.57924C21.1484 9.71678 21.1892 9.86788 21.1972 10.0224C21.2049 10.1204 21.2049 10.2308 21.2049 10.3226V13.0036C21.2049 13.0969 21.2049 13.2057 21.1972 13.3037C21.1853 13.4581 21.1447 13.6089 21.0774 13.7484C20.9653 13.9675 20.7868 14.1455 20.5673 14.257C20.4283 14.324 20.278 14.3646 20.1241 14.3767C20.0262 14.3845 19.9158 14.3845 19.824 14.3845H16.3655C16.2722 14.3845 16.1633 14.3845 16.0653 14.3767C15.9109 14.3648 15.7601 14.3242 15.6206 14.257C15.4018 14.1453 15.2238 13.9673 15.1121 13.7484C15.0448 13.6089 15.0042 13.4581 14.9923 13.3037C14.9846 13.2057 14.9846 13.0953 14.9846 13.0036V10.3226C14.9846 10.2293 14.9846 10.1204 14.9923 10.0224C15.0044 9.86856 15.045 9.71827 15.1121 9.57924C15.2235 9.35983 15.4015 9.18129 15.6206 9.06917C15.7601 9.00192 15.9109 8.96131 16.0653 8.94943C16.1633 8.94165 16.2737 8.94165 16.3655 8.94165ZM16.5397 10.4967V12.8294H19.6498V10.4967H16.5397ZM9.54173 10.108C9.54173 9.90175 9.62365 9.70398 9.76947 9.55816C9.91528 9.41234 10.1131 9.33043 10.3193 9.33043H12.2631C12.4694 9.33043 12.6671 9.41234 12.813 9.55816C12.9588 9.70398 13.0407 9.90175 13.0407 10.108C13.0407 10.3142 12.9588 10.512 12.813 10.6578C12.6671 10.8036 12.4694 10.8855 12.2631 10.8855H10.3193C10.1131 10.8855 9.91528 10.8036 9.76947 10.6578C9.62365 10.512 9.54173 10.3142 9.54173 10.108ZM10.3193 12.8294C10.1131 12.8294 9.91528 12.9113 9.76947 13.0571C9.62365 13.2029 9.54173 13.4007 9.54173 13.6069C9.54173 13.8132 9.62365 14.0109 9.76947 14.1567C9.91528 14.3026 10.1131 14.3845 10.3193 14.3845H12.2631C12.4694 14.3845 12.6671 14.3026 12.813 14.1567C12.9588 14.0109 13.0407 13.8132 13.0407 13.6069C13.0407 13.4007 12.9588 13.2029 12.813 13.0571C12.6671 12.9113 12.4694 12.8294 12.2631 12.8294H10.3193ZM9.54173 17.8834C9.54173 17.6772 9.62365 17.4795 9.76947 17.3336C9.91528 17.1878 10.1131 17.1059 10.3193 17.1059H20.4274C20.6336 17.1059 20.8314 17.1878 20.9772 17.3336C21.123 17.4795 21.2049 17.6772 21.2049 17.8834C21.2049 18.0897 21.123 18.2874 20.9772 18.4333C20.8314 18.5791 20.6336 18.661 20.4274 18.661H10.3193C10.1131 18.661 9.91528 18.5791 9.76947 18.4333C9.62365 18.2874 9.54173 18.0897 9.54173 17.8834Z" fill="black"/>
<path d="M19.7603 0H10.988C10.1451 0 9.46402 6.95182e-08 8.91507 0.0450978C8.34746 0.0917507 7.84983 0.189722 7.38952 0.422986C6.65762 0.795781 6.0626 1.3908 5.6898 2.1227C5.45654 2.58301 5.35857 3.08064 5.31191 3.6467C5.26526 4.19876 5.26526 4.87989 5.26526 5.72275V21.7713H1.37752C1.1713 21.7713 0.973532 21.8532 0.827714 21.9991C0.681896 22.1449 0.599976 22.3427 0.599976 22.5489C0.599976 25.0712 1.45217 26.4926 2.46609 27.253C2.95439 27.62 3.44424 27.8035 3.8128 27.8953C4.03051 27.9497 4.25289 27.9886 4.47683 27.9917C7.05362 28.0104 15.6533 27.9917 20.219 27.9917C21.2905 27.9917 22.3729 28.0695 23.3588 27.5672C24.6231 26.9234 25.3244 25.7244 25.4364 24.3435C25.4815 23.7929 25.4815 23.1149 25.4815 22.2721V5.72119C25.4815 4.87833 25.4815 4.1972 25.4364 3.64825C25.3897 3.08064 25.2918 2.58301 25.0569 2.1227C24.6846 1.39104 24.0901 0.796045 23.3588 0.422986C22.8985 0.189722 22.4008 0.0917507 21.8348 0.0450978C21.2827 6.95182e-08 20.6032 0 19.7603 0ZM20.5036 26.009C19.9625 25.6031 19.2596 24.6918 19.2596 22.5489C19.2596 22.3427 19.1776 22.1449 19.0318 21.9991C18.886 21.8532 18.6882 21.7713 18.482 21.7713H6.82035V5.75385C6.82035 4.87056 6.82035 4.25474 6.86079 3.77422C6.89811 3.30458 6.96964 3.03399 7.07384 2.82872C7.29754 2.38941 7.65467 2.03228 8.09398 1.80858C8.29925 1.70438 8.56984 1.63285 9.03947 1.59553C9.52 1.55509 10.1358 1.55509 11.0191 1.55509H19.7276C20.6109 1.55509 21.2283 1.55509 21.7073 1.59553C22.1769 1.63285 22.4475 1.70438 22.6528 1.80858C23.0921 2.03228 23.4492 2.38941 23.6729 2.82872C23.7771 3.03399 23.8486 3.30458 23.886 3.77422C23.9264 4.25474 23.9264 4.87056 23.9264 5.75385V22.2379C23.9264 23.1211 23.9264 23.7385 23.886 24.2175C23.8175 25.0666 23.4412 25.7804 22.6528 26.1831C21.953 26.5392 21.1272 26.477 20.5036 26.009ZM18.7635 26.4366H4.49704C4.09727 26.4059 3.71566 26.2571 3.4007 26.009C2.92951 25.656 2.33702 24.9204 2.19084 23.3264H17.7356C17.8444 24.7198 18.2379 25.7244 18.7666 26.4366" fill="black"/>
</svg>
